HIERARCHY
ROOT RootJoint
{
    OFFSET   0.000000   0.000000   0.000000
    CHANNELS 6 Xposition Yposition Zposition Xrotation Yrotation Zrotation
    JOINT pelvis_lowerback
    {
        OFFSET   0.000000   0.093605   0.000000
        CHANNELS 3 Xrotation Yrotation Zrotation
        JOINT lowerback_torso
        {
            OFFSET   0.000000   0.100000   0.000000
            CHANNELS 3 Xrotation Yrotation Zrotation
            JOINT torso_head
            {
                OFFSET   0.000000   0.282350   0.000000
                CHANNELS 3 Xrotation Yrotation Zrotation
                End Site
                {
                    OFFSET   0.000000   0.192650   0.000000
                }
            }
            JOINT rTorso_Clavicle
            {
                OFFSET  -0.001000   0.157500   0.000000
                CHANNELS 3 Xrotation Yrotation Zrotation
                JOINT rShoulder
                {
                    OFFSET  -0.117647   0.000000   0.000000
                    CHANNELS 3 Xrotation Yrotation Zrotation
                    JOINT rElbow
                    {
                        OFFSET  -0.245000   0.000000   0.000000
                        CHANNELS 3 Xrotation Yrotation Zrotation
                        JOINT rWrist
                        {
                            OFFSET  -0.240000   0.000000   0.000000
                            CHANNELS 3 Xrotation Yrotation Zrotation
                            End Site
                            {
                                OFFSET  -0.116353  -0.002500   0.000000
                            }
                        }
                    }
                }
            }
            JOINT lTorso_Clavicle
            {
                OFFSET   0.001000   0.157500   0.000000
                CHANNELS 3 Xrotation Yrotation Zrotation
                JOINT lShoulder
                {
                    OFFSET   0.117647   0.000000   0.000000
                    CHANNELS 3 Xrotation Yrotation Zrotation
                    JOINT lElbow
                    {
                        OFFSET   0.245000   0.000000   0.000000
                        CHANNELS 3 Xrotation Yrotation Zrotation
                        JOINT lWrist
                        {
                            OFFSET   0.240000   0.000000   0.000000
                            CHANNELS 3 Xrotation Yrotation Zrotation
                            End Site
                            {
                                OFFSET   0.116353  -0.002500   0.000000
                            }
                        }
                    }
                }
            }
        }
    }
    JOINT rHip
    {
        OFFSET  -0.100000  -0.051395   0.000000
        CHANNELS 3 Xrotation Yrotation Zrotation
        JOINT rKnee
        {
            OFFSET   0.000000  -0.410000   0.000000
            CHANNELS 3 Xrotation Yrotation Zrotation
            JOINT rAnkle
            {
                OFFSET   0.000000  -0.390000   0.000000
                CHANNELS 3 Xrotation Yrotation Zrotation
                JOINT rToeJoint
                {
                    OFFSET   0.000000  -0.050000   0.130000
                    CHANNELS 3 Xrotation Yrotation Zrotation
                    End Site
                    {
                        OFFSET  -0.010000   0.002000   0.060000
                    }
                }
            }
        }
    }
    JOINT lHip
    {
        OFFSET   0.100000  -0.051395   0.000000
        CHANNELS 3 Xrotation Yrotation Zrotation
        JOINT lKnee
        {
            OFFSET   0.000000  -0.410000   0.000000
            CHANNELS 3 Xrotation Yrotation Zrotation
            JOINT lAnkle
            {
                OFFSET   0.000000  -0.390000   0.000000
                CHANNELS 3 Xrotation Yrotation Zrotation
                JOINT lToeJoint
                {
                    OFFSET   0.000000  -0.050000   0.130000
                    CHANNELS 3 Xrotation Yrotation Zrotation
                    End Site
                    {
                        OFFSET   0.010000   0.002000   0.060000
                    }
                }
            }
        }
    }
}
MOTION
Frames: 7
Frame Time:   0.008333
 -2.376719   0.925631   3.975860   0.000000   0.000000   0.000000   0.000000   0.000000   0.000000   0.000000   0.000000   0.000000   0.000000   0.000000   0.000000   0.000000   0.000000   0.000000   0.000000   0.000000   0.000000   0.000000   0.000000   0.000000   0.000000   0.000000   0.000000   0.000000   0.000000   0.000000   0.000000   0.000000   0.000000   0.000000   0.000000   0.000000   0.000000   0.000000   0.000000   0.000000   0.000000   0.000000   0.000000   0.000000   0.000000   0.000000   0.000000   0.000000   0.000000   0.000000   0.000000   0.000000   0.000000   0.000000   0.000000   0.000000   0.000000   0.000000   0.000000   0.000000   0.000000   0.000000   0.000000
 -2.376599   0.924894   3.973226  -1.020830  -0.038810   0.007087   1.812599   0.092210  -0.025427  -0.294980  -0.144441   0.039846  -0.065965   0.078567   0.153113  -0.367463  -0.027861   0.023224  -1.107826   0.599688   0.309437   0.009337   3.337548   0.028208  -0.011204  -2.586002  -0.522154  -0.787021  -0.029464   0.089384  -1.036851  -0.095992  -0.605634   0.013447  -3.382562  -0.038757  -0.017745   2.140728   0.685993  -0.193441  -0.446882  -0.127447   3.356077   0.002959  -0.014354  -2.877705  -0.533413  -0.184702   0.378866   0.001010  -0.003371  -0.319136   0.329659   0.095961   3.485657  -0.002753   0.008969  -2.694798   0.211935  -0.040296   0.175552  -0.000098   0.000768
 -2.376445   0.923565   3.969857  -2.303284  -0.127661   0.010412   3.710709   0.211800  -0.043585  -0.332382  -0.252410   0.085490  -0.070256   0.151101   0.314307  -0.719764   0.370160   0.157289  -2.159243   1.542614   0.696464   0.020649   6.844055   0.047378  -0.059499  -3.944616  -0.919052  -1.533929  -0.435596   0.018143  -2.023302  -0.519577  -1.297657   0.028390  -6.963516  -0.066410  -0.080624   3.119451   1.159463  -0.290349  -0.901489  -0.370578   7.094306   0.007068  -0.030146  -5.558132  -1.037099  -0.384873   0.664186   0.001821  -0.005331  -0.603270   0.664117   0.299120   7.352263  -0.007346   0.016392  -5.199520   0.419852  -0.065048   0.290301  -0.000244   0.001074
 -2.376291   0.921539   3.966084  -3.644801  -0.230190   0.009927   5.568228   0.348024  -0.060422  -0.276394  -0.324363   0.127908  -0.073666   0.217803   0.469843  -1.050468   1.064717   0.362819  -3.151351   2.672554   1.134046   0.031163  10.226115   0.059550  -0.101753  -4.515449  -1.176684  -2.231416  -1.102923  -0.158203  -2.953843  -1.131514  -2.029204   0.042395 -10.637538  -0.086062  -0.136956   3.440489   1.444053  -0.366713  -1.333190  -0.706746  10.878785   0.010917  -0.043942  -8.056779  -1.501108  -0.595401   0.942198   0.002622  -0.006757  -0.922200   0.978664   0.592337  11.249180  -0.012699   0.022611  -7.532449   0.616614  -0.078111   0.412715  -0.000458   0.001319
 -2.376159   0.918757   3.962134  -4.989803  -0.324643   0.005979   7.364456   0.493066  -0.080234  -0.177297  -0.370881   0.165539  -0.087888   0.279740   0.617328  -1.363048   1.937092   0.610769  -4.089537   3.891255   1.604735   0.039892  13.449538   0.066776  -0.136812  -4.633064  -1.328939  -2.885476  -1.926452  -0.399596  -3.833343  -1.846705  -2.776209   0.054264 -14.371236  -0.099888  -0.185024   3.370292   1.594374  -0.440366  -1.737717  -1.114487  14.660827   0.014037  -0.055231 -10.390519  -1.926830  -0.812563   1.198078   0.003287  -0.007586  -1.287820   1.270015   0.959580  15.124694  -0.018011   0.028701  -9.710136   0.801851  -0.081923   0.525036  -0.000671   0.001475
 -2.376059   0.915182   3.958184  -6.317336  -0.400730  -0.000640   9.089986   0.641628  -0.104760  -0.051593  -0.399491   0.198387  -0.110714   0.337429   0.756194  -1.659702   2.904985   0.881146  -4.977999   5.137156   2.094669   0.046434  16.501845   0.070421  -0.165922  -4.476062  -1.406290  -3.500428  -2.832033  -0.679092  -4.665236  -2.608558  -3.522130   0.063373 -18.143849  -0.109481  -0.226459   3.062004   1.652312  -0.509670  -2.113604  -1.575754  18.427818   0.016294  -0.064113 -12.570865  -2.316486  -1.033101   1.431642   0.003793  -0.007940  -1.693146   1.536373   1.385934  18.973426  -0.022664   0.035095 -11.743692   0.975694  -0.078317   0.625516  -0.000852   0.001564
 -2.375995   0.910806   3.954373  -7.601382  -0.452711  -0.010625  10.725688   0.789693  -0.132782   0.085424  -0.415642   0.227520  -0.138715   0.391202   0.886529  -1.941674   3.910750   1.162134  -5.819995   6.369748   2.593913   0.050744  19.379604   0.071646  -0.190537  -4.152195  -1.431622  -4.079211  -3.767439  -0.980270  -5.451913  -3.378984  -4.256409   0.069457 -21.941646  -0.116314  -0.263179   2.612304   1.647099  -0.532593  -2.462431  -2.071734  21.984456   0.017501  -0.069811 -14.605509  -2.672362  -1.254692   1.649878   0.004159  -0.007989  -2.140181   1.776031   1.859185  22.794645  -0.026198   0.041835 -13.642740   1.138378  -0.068771   0.715624  -0.000991   0.001611
